<svg width="40" height="37" viewBox="0 0 40 37" fill="none" xmlns="http://www.w3.org/2000/svg">
<path d="M16.5 30.25C9.90075 30.25 6.60025 30.25 4.551 28.199C2.5 26.1497 2.5 22.8492 2.5 16.25C2.5 9.65075 2.5 6.35025 4.551 4.301C6.60025 2.25 9.90075 2.25 16.5 2.25H23.5C30.0992 2.25 33.3998 2.25 35.449 4.301C37.5 6.35025 37.5 9.65075 37.5 16.25C37.5 22.8492 37.5 26.1497 35.449 28.199C34.3063 29.3435 32.775 29.8493 30.5 30.0715" stroke="#0062CC" stroke-width="3.5" stroke-linecap="round" stroke-linejoin="round"/>
<path d="M16.4998 30.25C18.6628 30.25 21.0463 31.125 23.2216 32.2538C26.7181 34.0685 28.4663 34.9768 29.3273 34.3975C30.1883 33.82 30.0256 32.0262 29.6983 28.4405L29.6248 27.625" stroke="#0062CC" stroke-width="3.5" stroke-linecap="round"/>
</svg>
