<svg width="30" height="30" viewBox="0 0 30 30" fill="none" xmlns="http://www.w3.org/2000/svg">
<path d="M15.0407 28.8649C22.6161 28.8649 28.7569 22.7241 28.7569 15.1487C28.7569 7.57318 22.6161 1.43243 15.0407 1.43243C7.46521 1.43243 1.32446 7.57318 1.32446 15.1487C1.32446 22.7241 7.46521 28.8649 15.0407 28.8649Z" stroke="black" stroke-width="1.56757" stroke-linecap="round" stroke-linejoin="round"/>
<path d="M15.0406 21.1714V24.0642M19.1555 10.348C18.216 9.40841 16.5618 8.75552 15.0406 8.71437L19.1555 10.348ZM10.9258 19.2635C11.8091 20.4431 13.4537 21.1152 15.0406 21.1714L10.9258 19.2635ZM15.0406 8.71437C13.2301 8.66499 11.6116 9.48385 11.6116 11.7196C11.6116 15.8345 19.1555 13.777 19.1555 17.8919C19.1555 20.2387 17.1475 21.2469 15.0406 21.1714V8.71437ZM15.0406 8.71437V6.23311V8.71437Z" stroke="black" stroke-width="1.56757" stroke-linecap="round" stroke-linejoin="round"/>
</svg>
