<svg width="211" height="199" viewBox="0 0 211 199" fill="none" xmlns="http://www.w3.org/2000/svg">
<path fill-rule="evenodd" clip-rule="evenodd" d="M197.629 84.8003C200.375 103.344 181.914 115.629 163.523 112.003C136.54 106.683 114.764 133.981 125.948 159.106C133.57 176.232 125.695 196.961 107.005 198.405C96.3536 199.228 85.5662 198.334 75.0635 195.686C53.4861 190.247 34.3595 177.72 20.7493 160.115C7.13913 142.51 -0.166648 120.845 0.00288536 98.5934C0.172419 76.3414 7.80745 54.7906 21.6843 37.3949C35.5612 19.9992 54.8763 7.76582 76.5342 2.65545C98.192 -2.45492 120.939 -0.146386 141.128 9.21106C161.318 18.5685 177.781 34.4331 187.88 54.2621C192.796 63.9137 196.065 74.2326 197.629 84.8003ZM157.984 122.209C141.274 118.86 127.72 135.722 134.584 151.321L149.408 185.01C155.767 199.462 175.183 202.025 185.075 189.719L206.339 163.264C216.231 150.958 209.553 132.547 194.073 129.444L157.984 122.209Z" fill="#0062CC"/>
</svg>