<svg width="137" height="35" viewBox="0 0 137 35" fill="none" xmlns="http://www.w3.org/2000/svg">
<path d="M6.58548 9.03659V24.0004C6.58548 24.2303 6.58548 24.4372 6.58548 24.6211C6.58548 24.805 6.59697 24.9773 6.61995 25.1382C6.64294 25.529 6.75787 25.8048 6.96474 25.9657C7.17162 26.1266 7.41297 26.2416 7.6888 26.3105C7.96463 26.3565 8.26345 26.368 8.58525 26.345C8.90706 26.322 9.19438 26.3105 9.44723 26.3105C10.5965 26.3105 11.7228 26.1381 12.8262 25.7933C13.9295 25.4256 14.8259 24.8279 15.5155 24.0004C16.2051 23.2419 16.7453 22.2765 17.136 21.1042C17.5498 19.9319 17.7567 18.4149 17.7567 16.553C17.7567 15.0819 17.6417 13.7487 17.4119 12.5534C17.182 11.3582 16.7683 10.3353 16.1706 9.48481C15.596 8.63433 14.803 7.97923 13.7916 7.51951C12.8032 7.03681 11.5389 6.77247 9.99889 6.7265C9.86097 6.7265 9.6541 6.73799 9.37827 6.76098C9.12542 6.76098 8.87258 6.76098 8.61973 6.76098C8.3439 6.78396 8.09106 6.80695 7.8612 6.82994C7.63134 6.82994 7.49342 6.82994 7.44745 6.82994C7.17162 6.89889 6.97624 6.97934 6.86131 7.07129C6.76936 7.16323 6.70041 7.34712 6.65443 7.62295C6.60846 7.71489 6.57398 7.81833 6.551 7.93326C6.551 8.02521 6.551 8.12864 6.551 8.24357C6.551 8.3585 6.551 8.48492 6.551 8.62284C6.57398 8.76075 6.58548 8.89867 6.58548 9.03659ZM0.999889 6.27827C0.6551 6.25529 0.402254 6.14036 0.241353 5.93348C0.103437 5.72661 0.0344789 5.49675 0.0344789 5.2439C0.0344789 4.96807 0.126423 4.74971 0.31031 4.5888C0.494198 4.4279 0.689579 4.34745 0.896452 4.34745H6.99922C7.96463 4.34745 9.05647 4.38193 10.2747 4.45089C11.493 4.49686 12.5159 4.5888 13.3433 4.72672C14.4926 4.93359 15.5615 5.31286 16.5499 5.86453C17.5613 6.3932 18.4347 7.14025 19.1703 8.10566C19.9288 9.07107 20.515 10.2548 20.9287 11.657C21.3654 13.0361 21.5838 14.6681 21.5838 16.553C21.5838 19.1734 21.2045 21.2651 20.446 22.8282C19.6875 24.3682 18.6761 25.5865 17.4119 26.4829C16.2396 27.3104 14.9179 27.8851 13.4468 28.2069C11.9757 28.5517 10.2287 28.7241 8.20599 28.7241H3.06862V9.14002C3.06862 8.10566 2.89623 7.39309 2.55144 7.00233C2.20665 6.61157 1.68947 6.37022 0.999889 6.27827ZM32.6914 29.0688C31.4502 29.0688 30.2894 28.862 29.209 28.4482C28.1287 28.0345 27.1748 27.4139 26.3473 26.5864C25.5428 25.7819 24.9107 24.7935 24.4509 23.6212C23.9912 22.4489 23.7614 21.1157 23.7614 19.6216C23.7614 18.3114 23.9682 17.1506 24.382 16.1392C24.8187 15.1049 25.4164 14.2429 26.1749 13.5533C26.9564 12.8637 27.8644 12.3351 28.8987 11.9673C29.9561 11.5995 31.1054 11.4156 32.3466 11.4156C33.2431 11.4156 34.1395 11.588 35.036 11.9328C35.9554 12.2546 36.7714 12.7258 37.484 13.3465C38.2195 13.9901 38.8172 14.7831 39.2769 15.7255C39.7366 16.6449 39.9665 17.7023 39.9665 18.8976V20.8629H27.3817C27.5426 22.5868 28.1287 23.966 29.1401 25.0003C30.1745 26.0117 31.6456 26.6093 33.5534 26.7932C33.8752 26.8392 34.4958 26.8162 35.4153 26.7243C36.3577 26.6323 37.3116 26.3795 38.277 25.9657C38.5528 25.8508 38.7942 25.8508 39.0011 25.9657C39.2309 26.0807 39.3918 26.2416 39.4838 26.4484C39.5757 26.6783 39.5872 26.9197 39.5182 27.1725C39.4493 27.4254 39.2654 27.6322 38.9666 27.7931C38.0931 28.2758 37.1737 28.6091 36.2083 28.793C35.2429 28.9769 34.0706 29.0688 32.6914 29.0688ZM32.2432 13.5188C31.1169 13.5188 30.0595 13.8981 29.0711 14.6567C28.1057 15.4152 27.5426 16.6794 27.3817 18.4493H36.4496C36.4496 16.6564 36.0129 15.3922 35.1394 14.6567C34.266 13.8981 33.3005 13.5188 32.2432 13.5188Z" fill="black"/>
<path d="M89.4154 13.5533V28.7241H86.0364V26.2071C85.8985 26.4599 85.6916 26.7473 85.4158 27.0691C85.163 27.3909 84.8182 27.7012 84.3814 28C83.9447 28.2988 83.4045 28.5517 82.7609 28.7585C82.1173 28.9654 81.3703 29.0688 80.5198 29.0688C78.589 29.0688 77.0949 28.4942 76.0375 27.3449C75.0032 26.1956 74.4975 24.5406 74.5205 22.3799V16.4496C74.5205 16.1507 74.509 15.8864 74.486 15.6565C74.486 15.4037 74.463 15.1738 74.417 14.967C74.394 14.7601 74.3251 14.5877 74.2102 14.4498C74.1182 14.2889 73.9918 14.1395 73.8309 14.0016C73.67 13.8866 73.4976 13.8062 73.3137 13.7602C73.1298 13.6912 72.9344 13.6568 72.7276 13.6568C72.3828 13.6568 72.1299 13.5648 71.969 13.3809C71.8081 13.1741 71.7277 12.9327 71.7277 12.6569C71.7277 12.427 71.8081 12.2201 71.969 12.0363C72.1299 11.8524 72.3253 11.7604 72.5552 11.7604H76.072C76.6237 11.7604 77.0604 11.9673 77.3822 12.381C77.727 12.7718 77.8994 13.1626 77.8994 13.5533V22.3799C77.8994 22.8397 77.9224 23.2994 77.9684 23.7591C78.0373 24.2188 78.1867 24.6441 78.4166 25.0348C78.6465 25.4026 78.9683 25.7129 79.382 25.9657C79.8187 26.1956 80.4049 26.3105 81.1404 26.3105C81.899 26.3105 82.577 26.1266 83.1747 25.7589C83.7953 25.3681 84.3125 24.8739 84.7262 24.2763C85.14 23.6786 85.4618 23.012 85.6916 22.2765C85.9215 21.5409 86.0364 20.8169 86.0364 20.1043V16.4496C86.0364 16.1507 86.0249 15.8864 86.002 15.6565C86.002 15.4037 85.979 15.1738 85.933 14.967C85.91 14.7601 85.8411 14.5877 85.7261 14.4498C85.6342 14.2889 85.5078 14.1395 85.3469 14.0016C85.186 13.8866 85.0136 13.8062 84.8297 13.7602C84.6458 13.6912 84.4504 13.6568 84.2435 13.6568C83.8987 13.6568 83.6459 13.5648 83.485 13.3809C83.3241 13.1741 83.2436 12.9327 83.2436 12.6569C83.2436 12.427 83.3241 12.2201 83.485 12.0363C83.6459 11.8524 83.8413 11.7604 84.0711 11.7604H87.588C88.1397 11.7604 88.5764 11.9673 88.8982 12.381C89.243 12.7718 89.4154 13.1626 89.4154 13.5533ZM101.593 29.0688C100.352 29.0688 99.1911 28.862 98.1108 28.4482C97.0305 28.0345 96.0765 27.4139 95.249 26.5864C94.4445 25.7819 93.8124 24.7935 93.3527 23.6212C92.893 22.4489 92.6631 21.1157 92.6631 19.6216C92.6631 18.3114 92.87 17.1506 93.2837 16.1392C93.7205 15.1049 94.3181 14.2429 95.0766 13.5533C95.8582 12.8637 96.7661 12.3351 97.8005 11.9673C98.8578 11.5995 100.007 11.4156 101.248 11.4156C102.145 11.4156 103.041 11.588 103.938 11.9328C104.857 12.2546 105.673 12.7258 106.386 13.3465C107.121 13.9901 107.719 14.7831 108.179 15.7255C108.638 16.6449 108.868 17.7023 108.868 18.8976V20.8629H96.2834C96.4443 22.5868 97.0305 23.966 98.0418 25.0003C99.0762 26.0117 100.547 26.6093 102.455 26.7932C102.777 26.8392 103.398 26.8162 104.317 26.7243C105.259 26.6323 106.213 26.3795 107.179 25.9657C107.455 25.8508 107.696 25.8508 107.903 25.9657C108.133 26.0807 108.294 26.2416 108.386 26.4484C108.477 26.6783 108.489 26.9197 108.42 27.1725C108.351 27.4254 108.167 27.6322 107.868 27.7931C106.995 28.2758 106.075 28.6091 105.11 28.793C104.145 28.9769 102.972 29.0688 101.593 29.0688ZM101.145 13.5188C100.019 13.5188 98.9613 13.8981 97.9729 14.6567C97.0075 15.4152 96.4443 16.6794 96.2834 18.4493H105.351C105.351 16.6564 104.915 15.3922 104.041 14.6567C103.168 13.8981 102.202 13.5188 101.145 13.5188ZM122.432 12.2431V15.3118C121.673 14.829 120.869 14.4383 120.018 14.1395C119.168 13.8407 118.34 13.6912 117.536 13.6912C116.8 13.6912 116.134 13.8292 115.536 14.105C114.938 14.3578 114.628 14.829 114.605 15.5186C114.582 15.7945 114.605 16.0588 114.674 16.3116C114.743 16.5645 114.881 16.7714 115.088 16.9323C115.64 17.438 116.249 17.8057 116.915 18.0356C117.605 18.2654 118.294 18.4953 118.984 18.7252C119.674 18.955 120.34 19.2538 120.984 19.6216C121.65 19.9664 122.26 20.4951 122.811 21.2077C123.018 21.5524 123.19 21.9202 123.328 22.311C123.466 22.6788 123.535 23.104 123.535 23.5867C123.535 24.5751 123.328 25.4256 122.915 26.1381C122.501 26.8277 121.961 27.3909 121.294 27.8276C120.651 28.2643 119.915 28.5746 119.087 28.7585C118.283 28.9654 117.49 29.0688 116.708 29.0688C115.858 29.0688 115.042 29.0114 114.26 28.8965C113.479 28.7815 112.778 28.6091 112.157 28.3793C111.674 28.2184 111.353 27.954 111.192 27.5863C111.054 27.2185 111.019 26.8622 111.088 26.5174C111.18 26.1726 111.353 25.8968 111.606 25.6899C111.858 25.483 112.157 25.4371 112.502 25.552C112.732 25.6669 112.985 25.7933 113.261 25.9313C113.536 26.0462 113.835 26.1611 114.157 26.2761C114.479 26.391 114.824 26.4829 115.191 26.5519C115.582 26.6208 115.996 26.6553 116.433 26.6553C117.444 26.6553 118.317 26.5059 119.053 26.2071C119.812 25.8853 120.191 25.2187 120.191 24.2073C120.191 23.7016 120.018 23.2419 119.674 22.8282C119.352 22.4144 118.881 22.0581 118.26 21.7593C117.8 21.5754 117.283 21.3915 116.708 21.2077C116.134 21.0238 115.559 20.8054 114.984 20.5526C114.387 20.3227 113.824 20.0584 113.295 19.7595C112.789 19.4377 112.364 19.0585 112.019 18.6217C111.56 18.0701 111.295 17.415 111.226 16.6564C111.18 15.8979 111.307 15.1394 111.606 14.3808C112.042 13.3005 112.766 12.5419 113.778 12.1052C114.812 11.6455 115.973 11.4041 117.26 11.3812C117.559 11.3812 117.938 11.4041 118.398 11.4501C118.858 11.4731 119.34 11.5306 119.846 11.6225C120.352 11.6915 120.834 11.7834 121.294 11.8983C121.754 12.0133 122.133 12.1282 122.432 12.2431ZM136.075 26.414V28.7241C135.569 28.839 134.994 28.9194 134.351 28.9654C133.707 29.0344 133.213 29.0688 132.868 29.0688C131.696 29.0688 130.765 28.9539 130.075 28.7241C129.386 28.4942 128.857 28.1494 128.489 27.6897C128.122 27.253 127.88 26.7128 127.765 26.0692C127.673 25.4256 127.627 24.69 127.627 23.8625V14.1395H124.869V11.7604H127.627V9.00211L130.972 5.86453V11.7604H135.73V14.1395H131.006V24.4831C131.006 24.9888 131.052 25.3911 131.144 25.6899C131.259 25.9657 131.432 26.1726 131.661 26.3105C132.006 26.5174 132.569 26.6438 133.351 26.6898C134.132 26.7128 135.04 26.6208 136.075 26.414Z" fill="black"/>
<path fill-rule="evenodd" clip-rule="evenodd" d="M68.9151 13.441C69.2899 15.9727 66.7696 17.6499 64.2587 17.1549C60.5749 16.4285 57.602 20.1554 59.1288 23.5856C60.1695 25.9238 59.0943 28.7537 56.5426 28.9509C55.0885 29.0633 53.6157 28.9412 52.1819 28.5797C49.236 27.837 46.6248 26.1269 44.7666 23.7234C42.9085 21.3198 41.9111 18.3621 41.9342 15.3241C41.9574 12.2862 42.9997 9.34398 44.8943 6.96904C46.7888 4.59409 49.4258 2.92393 52.3826 2.22624C55.3395 1.52855 58.4449 1.84372 61.2013 3.12125C63.9577 4.39877 66.2053 6.56467 67.5841 9.27182C68.2552 10.5895 68.7015 11.9983 68.9151 13.441ZM63.5025 18.5483C61.2212 18.091 59.3708 20.3931 60.3079 22.5227L62.3317 27.1222C63.1999 29.0951 65.8507 29.4451 67.2011 27.765L70.1043 24.1533C71.4547 22.4732 70.543 19.9596 68.4295 19.536L63.5025 18.5483Z" fill="#0062CC"/>
</svg>