<svg width="371" height="350" viewBox="0 0 371 350" fill="none" xmlns="http://www.w3.org/2000/svg">
<path fill-rule="evenodd" clip-rule="evenodd" d="M347.49 149.104C352.317 181.709 319.859 203.31 287.521 196.934C240.077 187.58 201.789 235.577 221.453 279.755C234.856 309.868 221.008 346.315 188.146 348.854C169.418 350.302 150.45 348.729 131.984 344.074C94.0441 334.509 60.4141 312.484 36.4834 281.529C12.5527 250.574 -0.293016 212.481 0.0050733 173.356C0.303162 134.231 13.7278 96.3379 38.1273 65.7512C62.5269 35.1644 96.4886 13.6546 134.569 4.66905C172.65 -4.31647 212.645 -0.257389 248.144 16.1957C283.643 32.6489 312.591 60.5434 330.348 95.4086C338.991 112.379 344.739 130.523 347.49 149.104ZM277.781 214.88C248.401 208.99 224.569 238.639 236.638 266.066L262.703 325.302C273.884 350.712 308.024 355.219 325.416 333.582L362.805 287.066C380.197 265.428 368.455 233.056 341.236 227.6L277.781 214.88Z" fill="#0062CC" fill-opacity="0.1"/>
</svg>