<svg width="44" height="36" viewBox="0 0 44 36" fill="none" xmlns="http://www.w3.org/2000/svg">
<path d="M38.621 14.2115L25.517 28.1989L31.8271 14.2115H38.621ZM21.5417 30.4495L14.2009 14.2115H28.8824L21.5417 30.4495ZM31.764 11.5192L27.4732 3.44231H32.984L39.0417 11.5192H31.764ZM17.5663 28.1989L4.46235 14.2115H11.2562L17.5663 28.1989ZM28.7142 11.5192H14.3692L18.6601 3.44231H24.4233L28.7142 11.5192ZM11.3193 11.5192H4.04168L10.0994 3.44231H15.6102L11.3193 11.5192ZM8.35358 1.29688L0.276657 12.0661C0.0803413 12.3185 -0.0108032 12.6095 0.00321579 12.939C0.0172386 13.2685 0.136433 13.5525 0.36079 13.7909L20.5531 35.3293C20.8055 35.6098 21.135 35.75 21.5417 35.75C21.9483 35.75 22.2779 35.6098 22.5303 35.3293L42.7226 13.7909C42.9469 13.5525 43.0661 13.2685 43.0801 12.939C43.0942 12.6095 43.003 12.3185 42.8067 12.0661L34.7298 1.29688C34.4774 0.932292 34.1198 0.75 33.6571 0.75H9.4263C8.96355 0.75 8.60598 0.932292 8.35358 1.29688Z" fill="#0062CC"/>
</svg>
