<svg width="29" height="28" viewBox="0 0 29 28" fill="none" xmlns="http://www.w3.org/2000/svg">
<path d="M3.73224 10.9834L12.0766 21.9465L8.05846 10.9834H3.73224ZM14.6081 23.7104L19.2825 10.9834H9.9336L14.6081 23.7104ZM8.09864 8.87318L10.831 2.54262H7.3218L3.46436 8.87318H8.09864ZM17.1395 21.9465L25.4839 10.9834H21.1577L17.1395 21.9465ZM10.0408 8.87318H19.1754L16.443 2.54262H12.7731L10.0408 8.87318ZM21.1175 8.87318H25.7518L21.8943 2.54262H18.3851L21.1175 8.87318ZM23.006 0.861066L28.1493 9.30181C28.2743 9.49964 28.3323 9.7277 28.3234 9.98598C28.3145 10.2443 28.2386 10.4668 28.0957 10.6537L15.2376 27.5352C15.0768 27.755 14.867 27.8649 14.6081 27.8649C14.3491 27.8649 14.1393 27.755 13.9786 27.5352L1.12043 10.6537C0.977566 10.4668 0.901668 10.2443 0.892739 9.98598C0.883809 9.7277 0.941849 9.49964 1.06686 9.30181L6.21011 0.861066C6.37083 0.575311 6.59853 0.432434 6.89319 0.432434H22.3229C22.6176 0.432434 22.8453 0.575311 23.006 0.861066Z" fill="black"/>
</svg>
