<svg width="26" height="28" viewBox="0 0 26 28" fill="none" xmlns="http://www.w3.org/2000/svg">
<path d="M11.7955 0.981652C12.1869 0.611589 12.7052 0.405396 13.2438 0.405396C13.7825 0.405396 14.3007 0.611589 14.6922 0.981652L24.9042 10.635C25.5367 11.2316 25.893 12.0644 25.893 12.933V24.6755C25.893 25.5142 25.5598 26.3186 24.9667 26.9116C24.3737 27.5047 23.5694 27.8378 22.7307 27.8378H18.5143C18.0989 27.8378 17.6875 27.756 17.3037 27.5969C16.9199 27.4379 16.5712 27.2047 16.2775 26.9109C15.9838 26.617 15.7509 26.2681 15.5921 25.8842C15.4333 25.5003 15.3517 25.0889 15.352 24.6734V19.403C15.352 19.1234 15.241 18.8553 15.0433 18.6576C14.8456 18.4599 14.5775 18.3489 14.2979 18.3489H12.1897C11.9102 18.3489 11.6421 18.4599 11.4444 18.6576C11.2467 18.8553 11.1357 19.1234 11.1357 19.403V24.6734C11.1357 25.5121 10.8025 26.3165 10.2094 26.9095C9.6164 27.5026 8.81206 27.8357 7.97338 27.8357H3.757C2.91832 27.8357 2.11398 27.5026 1.52094 26.9095C0.927894 26.3165 0.594727 25.5121 0.594727 24.6734V12.9308C0.594727 12.0623 0.953118 11.2295 1.58557 10.6329L11.7955 0.977436V0.981652ZM13.2438 2.51219L3.03179 12.1677C2.92812 12.266 2.84551 12.3843 2.78897 12.5155C2.73244 12.6467 2.70316 12.788 2.70291 12.9308V24.6734C2.70291 24.953 2.81397 25.2211 3.01165 25.4188C3.20933 25.6165 3.47744 25.7275 3.757 25.7275H7.97338C8.25294 25.7275 8.52105 25.6165 8.71873 25.4188C8.91641 25.2211 9.02747 24.953 9.02747 24.6734V19.403C9.02747 18.5643 9.36064 17.7599 9.95368 17.1669C10.5467 16.5739 11.3511 16.2407 12.1897 16.2407H14.2979C15.1366 16.2407 15.941 16.5739 16.534 17.1669C17.127 17.7599 17.4602 18.5643 17.4602 19.403V24.6734C17.4602 24.953 17.5713 25.2211 17.7689 25.4188C17.9666 25.6165 18.2347 25.7275 18.5143 25.7275H22.7307C23.0102 25.7275 23.2784 25.6165 23.476 25.4188C23.6737 25.2211 23.7848 24.953 23.7848 24.6734V12.9308C23.7848 12.7876 23.7557 12.6459 23.6991 12.5143C23.6426 12.3828 23.5598 12.2641 23.4559 12.1656L13.2438 2.51219Z" fill="black"/>
</svg>
