<svg width="46" height="46" viewBox="0 0 46 46" fill="none" xmlns="http://www.w3.org/2000/svg">
<path fill-rule="evenodd" clip-rule="evenodd" d="M12.3852 35.1931C20.2285 34.0473 25.6288 34.1458 33.4823 35.2332C34.0511 35.3157 34.5708 35.6011 34.9455 36.0369C35.3201 36.4727 35.5245 37.0293 35.5208 37.604C35.5208 38.154 35.3317 38.6879 34.9902 39.105C34.3951 39.8322 33.7854 40.5473 33.1615 41.25H36.1876C36.3778 41.0231 36.5692 40.7917 36.7628 40.5568C37.4425 39.7233 37.8133 38.6806 37.8124 37.6051C37.8124 35.2848 36.1189 33.2853 33.7963 32.9645C25.7571 31.8519 20.1379 31.7453 12.0541 32.9267C9.70742 33.2693 8.02075 35.2997 8.02075 37.6361C8.02075 38.673 8.35877 39.6985 8.99929 40.5293C9.18836 40.7745 9.37513 41.0151 9.56075 41.2512H12.5136C11.9331 40.5562 11.367 39.8495 10.8154 39.1314C10.4877 38.7015 10.3109 38.1755 10.3124 37.6349C10.3124 36.4008 11.1993 35.3662 12.3852 35.1931ZM22.9166 24.0625C23.8194 24.0625 24.7134 23.8847 25.5475 23.5392C26.3816 23.1937 27.1395 22.6873 27.7779 22.0489C28.4164 21.4105 28.9228 20.6526 29.2683 19.8185C29.6138 18.9843 29.7916 18.0903 29.7916 17.1875C29.7916 16.2847 29.6138 15.3907 29.2683 14.5566C28.9228 13.7224 28.4164 12.9646 27.7779 12.3262C27.1395 11.6877 26.3816 11.1813 25.5475 10.8358C24.7134 10.4903 23.8194 10.3125 22.9166 10.3125C21.0932 10.3125 19.3445 11.0368 18.0552 12.3262C16.7659 13.6155 16.0416 15.3641 16.0416 17.1875C16.0416 19.0109 16.7659 20.7596 18.0552 22.0489C19.3445 23.3382 21.0932 24.0625 22.9166 24.0625ZM22.9166 26.3542C25.3477 26.3542 27.6793 25.3884 29.3984 23.6693C31.1175 21.9502 32.0833 19.6187 32.0833 17.1875C32.0833 14.7564 31.1175 12.4248 29.3984 10.7057C27.6793 8.98661 25.3477 8.02084 22.9166 8.02084C20.4854 8.02084 18.1539 8.98661 16.4348 10.7057C14.7157 12.4248 13.7499 14.7564 13.7499 17.1875C13.7499 19.6187 14.7157 21.9502 16.4348 23.6693C18.1539 25.3884 20.4854 26.3542 22.9166 26.3542Z" fill="black"/>
<path fill-rule="evenodd" clip-rule="evenodd" d="M22.9167 43.5417C34.3074 43.5417 43.5417 34.3074 43.5417 22.9167C43.5417 11.5259 34.3074 2.29167 22.9167 2.29167C11.5259 2.29167 2.29167 11.5259 2.29167 22.9167C2.29167 34.3074 11.5259 43.5417 22.9167 43.5417ZM22.9167 45.8333C35.5735 45.8333 45.8333 35.5735 45.8333 22.9167C45.8333 10.2598 35.5735 0 22.9167 0C10.2598 0 0 10.2598 0 22.9167C0 35.5735 10.2598 45.8333 22.9167 45.8333Z" fill="black"/>
</svg>
