<svg width="827" height="679" viewBox="0 0 827 679" fill="none" xmlns="http://www.w3.org/2000/svg">
<path fill-rule="evenodd" clip-rule="evenodd" d="M615.817 415.178C591.892 497.736 473.412 492.69 396.436 530.938C337.404 560.27 282.011 640.434 223.476 610.124C161.999 578.291 209.237 476.496 175.044 416.3C146.791 366.561 51.2725 364.232 51.3103 307.03C51.3472 251.38 134.586 242.883 175.184 204.821C231.973 151.579 254.11 44.7876 331.95 43.9186C409.715 43.0505 385.934 177.167 433.172 238.948C485.194 306.986 639.656 332.916 615.817 415.178Z" fill="#30A4D9" fill-opacity="0.4"/>
<path fill-rule="evenodd" clip-rule="evenodd" d="M803.115 162C816.18 162 826.771 172.591 826.771 185.656V394.204C826.771 407.269 816.18 417.86 803.115 417.86L777.311 417.86L747.12 470.152C741.848 479.283 728.67 479.283 723.398 470.152L693.207 417.86L414.656 417.86C401.591 417.86 391 407.269 391 394.204L391 185.656C391 172.591 401.591 162 414.656 162L803.115 162Z" fill="#DA4644"/>
<path fill-rule="evenodd" clip-rule="evenodd" d="M85.6561 46C72.5912 46 62 56.5912 62 69.6561V278.204C62 291.268 72.5912 301.86 85.6561 301.86L111.46 301.86L141.651 354.152C146.923 363.283 160.101 363.283 165.373 354.152L195.564 301.86L474.115 301.86C487.179 301.86 497.771 291.269 497.771 278.204V69.6561C497.771 56.5912 487.179 46 474.115 46H85.6561Z" fill="#0062CC"/>
<path d="M320.032 220.088V228.152C317.92 229.016 315.376 229.64 312.4 230.024C309.52 230.408 307.072 230.6 305.056 230.6C295.456 230.6 287.728 229.016 281.872 225.848C276.016 222.776 271.936 218.36 269.632 212.6C257.728 210.584 248.368 205.016 241.552 195.896C234.832 186.68 231.472 175.112 231.472 161.192C231.472 153.224 232.672 146.024 235.072 139.592C237.472 133.16 240.784 127.64 245.008 123.032C249.232 118.52 254.272 115.016 260.128 112.52C265.984 110.024 272.368 108.776 279.28 108.776C286.288 108.776 292.72 110.024 298.576 112.52C304.528 114.92 309.568 118.376 313.696 122.888C317.92 127.4 321.184 132.872 323.488 139.304C325.888 145.736 327.088 152.984 327.088 161.048C327.088 175.064 323.728 186.632 317.008 195.752C310.288 204.776 301.216 210.392 289.792 212.6C290.464 214.136 291.328 215.336 292.384 216.2C293.536 217.16 294.928 218.072 296.56 218.936C298.576 220.088 301.552 220.808 305.488 221.096C309.424 221.48 314.272 221.144 320.032 220.088ZM279.424 202.808C285.088 202.808 289.936 201.704 293.968 199.496C298.096 197.192 301.456 194.168 304.048 190.424C306.736 186.584 308.704 182.168 309.952 177.176C311.2 172.088 311.824 166.712 311.824 161.048C311.824 155.288 311.152 149.864 309.808 144.776C308.464 139.688 306.496 135.224 303.904 131.384C301.216 127.64 297.808 124.664 293.68 122.456C289.648 120.152 284.848 119 279.28 119C273.904 119 269.2 120.152 265.168 122.456C261.136 124.664 257.728 127.688 254.944 131.528C252.256 135.368 250.192 139.88 248.752 145.064C247.408 150.152 246.736 155.528 246.736 161.192C246.736 166.664 247.312 171.944 248.464 177.032C249.712 182.024 251.68 186.44 254.368 190.28C257.056 194.12 260.464 197.192 264.592 199.496C268.72 201.704 273.664 202.808 279.424 202.808Z" fill="white"/>
<path d="M564.128 341.024L594.512 259.952C594.8 259.088 595.04 258.368 595.232 257.792C595.424 257.12 595.616 256.496 595.808 255.92C596 255.344 596.144 254.768 596.24 254.192C596.432 253.616 596.576 252.944 596.672 252.176C596.672 251.408 596.576 250.784 596.384 250.304C596.192 249.728 595.76 249.152 595.088 248.576C594.512 248.096 593.648 247.76 592.496 247.568C591.44 247.28 590.336 247.136 589.184 247.136C588.032 247.136 587.12 246.752 586.448 245.984C585.776 245.216 585.44 244.16 585.44 242.816C585.44 241.664 585.776 240.752 586.448 240.08C587.216 239.408 588.032 239.072 588.896 239.072H615.104L653.984 341.024H637.424L625.04 308.48H589.616L577.376 341.024H564.128ZM607.04 260.24L593.36 298.544H621.728L607.04 260.24Z" fill="white"/>
</svg>