<svg width="16" height="16" viewBox="0 0 16 16" fill="none" xmlns="http://www.w3.org/2000/svg">
<path fill-rule="evenodd" clip-rule="evenodd" d="M12.857 11.998L15.8222 14.963C16.0595 15.2004 16.0595 15.5844 15.8206 15.8218C15.7031 15.9409 15.5451 16 15.3912 16C15.2372 16 15.0809 15.9401 14.9618 15.8218L11.9967 12.8567C10.7263 13.9309 9.0858 14.5823 7.29132 14.5823C3.26489 14.5823 0 11.3175 0 7.29114C0 3.26481 3.26489 0 7.29132 0C11.3178 0 14.5826 3.26481 14.5826 7.29114C14.5826 9.08476 13.9305 10.7261 12.857 11.998ZM7.29132 1.21519C3.94137 1.21519 1.21522 3.94127 1.21522 7.29114C1.21522 10.641 3.94137 13.3671 7.29132 13.3671C10.6413 13.3671 13.3674 10.641 13.3674 7.29114C13.3674 3.94127 10.6413 1.21519 7.29132 1.21519Z" fill="#8294A4"/>
</svg>
