<svg width="24" height="25" viewBox="0 0 24 25" fill="none" xmlns="http://www.w3.org/2000/svg">
<path d="M21.4703 13.3407V12.0291L23.1162 10.5889C23.4196 10.3215 23.6187 9.9554 23.6783 9.55537C23.7379 9.15535 23.6542 8.74714 23.442 8.40287L21.4188 4.97382C21.2685 4.71343 21.0523 4.49716 20.792 4.34669C20.5317 4.19623 20.2364 4.11686 19.9358 4.11655C19.7494 4.11512 19.5641 4.14408 19.3871 4.20228L17.304 4.90523C16.9443 4.66624 16.5691 4.45145 16.1809 4.26229L15.7437 2.10198C15.6653 1.7073 15.4506 1.35277 15.1372 1.10044C14.8237 0.848119 14.4315 0.714079 14.0292 0.721789H10.0172C9.6149 0.714079 9.22269 0.848119 8.90925 1.10044C8.5958 1.35277 8.38108 1.7073 8.30269 2.10198L7.86549 4.26229C7.47452 4.4514 7.0965 4.66618 6.7339 4.90523L4.69361 4.16799C4.5147 4.12137 4.32942 4.104 4.14496 4.11655C3.8443 4.11686 3.549 4.19623 3.2887 4.34669C3.02839 4.49716 2.81223 4.71343 2.6619 4.97382L0.638756 8.40287C0.438659 8.74662 0.364304 9.14925 0.428425 9.5418C0.492547 9.93435 0.691154 10.2924 0.990234 10.5546L2.61046 12.0377V13.3493L0.990234 14.7895C0.682706 15.0535 0.478666 15.418 0.414323 15.8182C0.349979 16.2183 0.429494 16.6284 0.638756 16.9755L2.6619 20.4046C2.81223 20.6649 3.02839 20.8812 3.2887 21.0317C3.549 21.1821 3.8443 21.2615 4.14496 21.2618C4.33129 21.2632 4.5166 21.2343 4.69361 21.1761L6.77676 20.4731C7.13642 20.7121 7.51159 20.9269 7.89978 21.1161L8.33698 23.2764C8.41537 23.6711 8.63009 24.0256 8.94354 24.2779C9.25698 24.5303 9.64919 24.6643 10.0515 24.6566H14.0978C14.5001 24.6643 14.8923 24.5303 15.2058 24.2779C15.5192 24.0256 15.7339 23.6711 15.8123 23.2764L16.2495 21.1161C16.6405 20.927 17.0185 20.7122 17.3811 20.4731L19.4557 21.1761C19.6327 21.2343 19.818 21.2632 20.0043 21.2618C20.305 21.2615 20.6003 21.1821 20.8606 21.0317C21.1209 20.8812 21.3371 20.6649 21.4874 20.4046L23.442 16.9755C23.6421 16.6318 23.7164 16.2291 23.6523 15.8366C23.5882 15.444 23.3896 15.086 23.0905 14.8238L21.4703 13.3407ZM19.9358 19.5473L16.9953 18.5529C16.307 19.1359 15.5203 19.5917 14.6722 19.8988L14.0635 22.9763H10.0172L9.40856 19.9331C8.56709 19.6172 7.78466 19.1623 7.09395 18.5872L4.14496 19.5473L2.12182 16.1182L4.45358 14.0608C4.29507 13.1734 4.29507 12.265 4.45358 11.3776L2.12182 9.26013L4.14496 5.83108L7.08538 6.8255C7.77371 6.24247 8.56039 5.78672 9.40856 5.4796L10.0172 2.40202H14.0635L14.6722 5.44531C15.5136 5.76115 16.2961 6.21611 16.9868 6.79121L19.9358 5.83108L21.9589 9.26013L19.6271 11.3176C19.7857 12.205 19.7857 13.1134 19.6271 14.0008L21.9589 16.1182L19.9358 19.5473Z" fill="black"/>
<path d="M12.0406 17.8328C11.0233 17.8328 10.0288 17.5311 9.18293 16.9659C8.33708 16.4007 7.67781 15.5974 7.28851 14.6576C6.8992 13.7177 6.79734 12.6835 6.99581 11.6857C7.19427 10.688 7.68415 9.77147 8.40349 9.05213C9.12284 8.33279 10.0393 7.84291 11.0371 7.64444C12.0348 7.44598 13.0691 7.54784 14.0089 7.93714C14.9488 8.32645 15.7521 8.98571 16.3173 9.83157C16.8825 10.6774 17.1841 11.6719 17.1841 12.6892C17.191 13.3666 17.0627 14.0385 16.8066 14.6657C16.5506 15.2928 16.1719 15.8626 15.6929 16.3416C15.2139 16.8206 14.6442 17.1992 14.017 17.4553C13.3899 17.7113 12.7179 17.8397 12.0406 17.8328ZM12.0406 9.26014C11.5874 9.24958 11.1367 9.33106 10.7159 9.49965C10.2951 9.66824 9.91289 9.92043 9.59234 10.241C9.2718 10.5615 9.0196 10.9438 8.85101 11.3646C8.68242 11.7854 8.60094 12.236 8.6115 12.6892C8.60094 13.1424 8.68242 13.593 8.85101 14.0138C9.0196 14.4346 9.2718 14.8169 9.59234 15.1374C9.91289 15.458 10.2951 15.7101 10.7159 15.8787C11.1367 16.0473 11.5874 16.1288 12.0406 16.1182C12.4938 16.1288 12.9444 16.0473 13.3652 15.8787C13.786 15.7101 14.1682 15.458 14.4888 15.1374C14.8093 14.8169 15.0615 14.4346 15.2301 14.0138C15.3987 13.593 15.4802 13.1424 15.4696 12.6892C15.4802 12.236 15.3987 11.7854 15.2301 11.3646C15.0615 10.9438 14.8093 10.5615 14.4888 10.241C14.1682 9.92043 13.786 9.66824 13.3652 9.49965C12.9444 9.33106 12.4938 9.24958 12.0406 9.26014Z" fill="black"/>
</svg>
