<svg width="36" height="29" viewBox="0 0 36 29" fill="none" xmlns="http://www.w3.org/2000/svg">
<path d="M19.75 7.0875V1.75C19.75 1.28587 19.9344 0.840752 20.2626 0.512563C20.5908 0.184374 21.0359 0 21.5 0C21.9591 0.00193309 22.3991 0.184198 22.725 0.5075L34.975 12.7575C35.1391 12.9202 35.2692 13.1137 35.3581 13.327C35.4469 13.5402 35.4927 13.769 35.4927 14C35.4927 14.231 35.4469 14.4598 35.3581 14.673C35.2692 14.8863 35.1391 15.0798 34.975 15.2425L22.725 27.4925C22.4794 27.7333 22.1682 27.8964 21.8303 27.9613C21.4925 28.0262 21.143 27.9902 20.8256 27.8576C20.5081 27.725 20.2368 27.5018 20.0455 27.2159C19.8542 26.93 19.7515 26.594 19.75 26.25V20.825H18.2625C15.4977 20.7838 12.757 21.3447 10.2306 22.4689C7.70427 23.593 5.45282 25.2535 3.63253 27.335C3.41316 27.627 3.10791 27.8431 2.75957 27.953C2.41122 28.0628 2.03724 28.0609 1.69003 27.9475C1.33669 27.8283 1.03069 27.5993 0.816624 27.2939C0.602562 26.9886 0.491638 26.6228 0.500031 26.25C0.500031 10.29 14.64 7.56 19.75 7.0875ZM18.2625 17.29C19.433 17.2863 20.6024 17.3623 21.7625 17.5175C22.1768 17.5804 22.5548 17.7898 22.8278 18.1077C23.1008 18.4256 23.2506 18.831 23.25 19.25V22.0325L31.265 14L23.25 5.9675V8.75C23.25 9.21413 23.0657 9.65925 22.7375 9.98744C22.4093 10.3156 21.9642 10.5 21.5 10.5C19.9075 10.5 7.30753 10.85 4.57753 21.7525C8.54006 18.831 13.3395 17.2659 18.2625 17.29Z" fill="#0062CC"/>
</svg>
